<svg id="Layer_3" enable-background="new 0 0 64 64" height="512" viewBox="0 0 64 64" width="512" xmlns="http://www.w3.org/2000/svg"><g><g><path d="m15 58h34v4h-34z" fill="#9d958c"/></g><g><path d="m18 58 3-4h22l3 4z" fill="#d5cec2"/></g><g><path d="m30 48h4v6h-4z" fill="#625d51"/></g><g><path d="m53 23h4c0 13.807-11.193 25-25 25s-25-11.193-25-25c0-8.179 3.928-15.441 10-20.002l3.001 3.001z" fill="#d5cec2"/></g><g><circle cx="32" cy="23" fill="#a1cdfb" r="21"/></g><g><path d="m11 23c0 6.468 2.928 12.247 7.526 16.099 1.735.493 3.56.774 5.453.774 11.011 0 19.937-8.926 19.937-19.937 0-7.873-4.576-14.66-11.202-17.901-.24-.007-.473-.035-.714-.035-11.598 0-21 9.402-21 21z" fill="#c7e2fc"/></g><g><path d="m32.999 43.977c-.331.015-.664.023-.999.023-5.518 0-10.54-2.129-14.287-5.609l2.774-3.498c.844-1.054 2.372-1.248 3.452-.438l.061.045c1.105.828 2.672.605 3.5-.5.828-1.105 2.395-1.328 3.5-.5 1.259.944 2 2.426 2 4v6.5z" fill="#94c049"/></g><g><path d="m31 33.5c-1.105-.828-2.672-.605-3.5.5s-2.395 1.328-3.5.5l-.062-.046c-1.08-.81-2.609-.616-3.452.438l-2.774 3.498c.271.251.562.48.846.717 1.726.487 3.539.766 5.42.766 3.251 0 6.31-.794 9.021-2.174v-.199c.001-1.574-.74-3.056-1.999-4z" fill="#c8ec6c"/></g><g><path d="m34 2.094v4.906c0 1.105.895 2 2 2 1.105 0 2 .895 2 2v3c0 1.657-1.343 3-3 3-1.657 0-3 1.343-3 3 0 1.657 1.343 3 3 3h1.243c1.125 0 2.204.447 3 1.243 1.125 1.125 1.757 2.651 1.757 4.242v.029c0 1.591-.632 3.117-1.757 4.243-.796.796-1.243 1.875-1.243 3v.485c0 1.125.447 2.204 1.243 3l2.412 2.412c6.74-3.495 11.345-10.537 11.345-18.654 0-10.923-8.34-19.899-19-20.906z" fill="#94c049"/></g><g><path d="m40.191 31.511c2.335-3.265 3.724-7.253 3.724-11.574 0-7.353-3.992-13.759-9.915-17.216v4.279c0 1.105.895 2 2 2s2 .895 2 2v3c0 1.657-1.343 3-3 3s-3 1.343-3 3 1.343 3 3 3h1.243c1.125 0 2.204.447 3 1.243 1.125 1.125 1.757 2.651 1.757 4.242v.029c0 1.063-.287 2.093-.809 2.997z" fill="#c8ec6c"/></g><g><path d="m17.636 7.681 4.779 4.733c.374.375.585.884.585 1.414v2.172c0 1.105.895 2 2 2 1.105 0 2 .895 2 2v3c0 1.105-.895 2-2 2h-4c-1.105 0-2 .895-2 2 0 1.105-.895 2-2 2h-5.13c-.566-1.901-.87-3.915-.87-6 0-6.042 2.551-11.488 6.636-15.319z" fill="#94c049"/></g><g><path d="m32 45c-12.131 0-22-9.869-22-22s9.869-22 22-22 22 9.869 22 22-9.869 22-22 22zm0-42c-11.028 0-20 8.972-20 20s8.972 20 20 20 20-8.972 20-20-8.972-20-20-20z"/></g><g><path d="m32 49c-14.337 0-26-11.664-26-26 0-8.255 3.79-15.837 10.399-20.802.396-.297.955-.26 1.308.093l3.001 3.001-1.414 1.414-2.377-2.376c-5.678 4.583-8.917 11.339-8.917 18.67 0 13.234 10.767 24 24 24 12.898 0 23.453-10.229 23.979-23h-2.979v-2h4c.553 0 1 .448 1 1 0 14.336-11.663 26-26 26z"/></g><g><path d="m49 63h-34c-.553 0-1-.448-1-1v-4c0-.552.447-1 1-1h34c.553 0 1 .448 1 1v4c0 .552-.447 1-1 1zm-33-2h32v-2h-32z"/></g><g><path d="m45.2 58.6-2.7-3.6h-21l-2.7 3.6-1.6-1.2 3-4c.188-.252.485-.4.8-.4h22c.314 0 .611.148.8.4l3 4z"/></g><g><path d="m29 48h2v6h-2z"/></g><g><path d="m33 48h2v6h-2z"/></g><g><path d="m41.293 42.707-2.758-2.757c-.99-.992-1.535-2.308-1.535-3.707v-.485c0-1.399.545-2.716 1.534-3.707.945-.944 1.466-2.2 1.466-3.536 0-1.365-.521-2.621-1.465-3.564-.612-.614-1.426-.951-2.293-.951h-1.242c-2.206 0-4-1.794-4-4s1.794-4 4-4c1.103 0 2-.897 2-2v-3c0-.551-.448-1-1-1-1.654 0-3-1.346-3-3v-5h2v5c0 .551.448 1 1 1 1.654 0 3 1.346 3 3v3c0 2.206-1.794 4-4 4-1.103 0-2 .897-2 2s.897 2 2 2h1.242c1.401 0 2.718.545 3.708 1.536 1.321 1.321 2.05 3.079 2.05 4.949 0 1.9-.729 3.658-2.051 4.979-.612.613-.949 1.428-.949 2.293v.485c0 .866.337 1.68.95 2.293l2.757 2.757z"/></g><g><path d="m17 30h-5v-2h5c.552 0 1-.449 1-1 0-1.654 1.346-3 3-3h4c.552 0 1-.449 1-1v-3c0-.551-.448-1-1-1-1.654 0-3-1.346-3-3v-2.171c0-.267-.104-.519-.293-.708l-4.414-4.414 1.414-1.414 4.414 4.414c.567.566.879 1.32.879 2.122v2.171c0 .551.448 1 1 1 1.654 0 3 1.346 3 3v3c0 1.654-1.346 3-3 3h-4c-.552 0-1 .449-1 1 0 1.654-1.346 3-3 3z"/></g><g><path d="m34 44h-2v-6.5c0-1.252-.599-2.448-1.601-3.2-.319-.24-.717-.34-1.111-.285-.396.057-.748.264-.988.585-.561.748-1.379 1.232-2.305 1.365-.925.13-1.848-.104-2.596-.665-.711-.535-1.622-.419-2.133.217l-2.485 3.107-1.562-1.249 2.486-3.108c1.189-1.486 3.312-1.756 4.833-.614.383.287.778.388 1.174.331s.748-.264.988-.585c.561-.748 1.379-1.232 2.305-1.365.924-.132 1.848.103 2.596.665 1.502 1.129 2.399 2.923 2.399 4.801z"/></g></g></svg>